<svg width="26" height="22" xmlns="http://www.w3.org/2000/svg"><path d="M23.715 2.621H2.285c-.352 0-.68.073-.979.194l11.643 9.852 2.61-2.122 9.135-7.73a2.601 2.601 0 00-.98-.194zm2.056 1.106L17.175 11l8.596 7.274a1.67 1.67 0 00.229-.829V4.555c0-.298-.086-.576-.229-.828zM.229 3.726A1.67 1.67 0 000 4.555v12.89c0 .298.086.576.229.828L8.825 11 .23 3.726z"/><path d="M16.098 11.912l-2.61 2.122a.835.835 0 01-.539.189.835.835 0 01-.538-.19l-2.509-2.122-8.596 7.274c.298.12.627.194.98.194h21.429c.352 0 .68-.073.979-.194l-8.596-7.273z"/></svg>