<svg width="79" height="77" fill="none" xmlns="http://www.w3.org/2000/svg"><path d="M45.86 5.319c-.34-.524-.449-.877-.449-.877l.162-.15s.314.131.864.357l.94.373c.359.13.749.281 1.167.383.206.064.416.127.632.152.11.014.213.044.322.064.107.007.214.01.32.024.433.058.83.011 1.265-.011.202-.075.427-.095.646-.19.202-.119.465-.188.651-.34.1-.068.202-.139.312-.209.115-.064.236-.115.358-.247l.77-.645c.007-.01-.046.066-.02.03l.005-.005.013-.012.025-.022.05-.045.102-.09.202-.177.38-.361c.24-.247.541-.44.783-.677.237-.246.557-.397.811-.635.272-.215.59-.375.896-.583.644-.303 1.397-.528 2.071-.433.169.018.333.044.495.074.156.043.302.097.448.152.297.098.553.238.795.377a5.477 5.477 0 011.87 1.797c.173.26.272.49.343.647l.089.249-.162.15s-.346-.117-.878-.34c-.26-.103-.573-.232-.934-.377a18.748 18.748 0 00-1.136-.439c-.202-.074-.41-.151-.62-.202-.108-.026-.213-.068-.32-.099a2.823 2.823 0 01-.322-.084c-.434-.142-.883-.281-1.439-.34-.255.034-.56.023-.826.134-.255.13-.549.23-.754.46-.206.222-.442.416-.587.7l-.21.421-.098.212-.047.106-.023.054-.012.025-.005.012-.004.008a.49.49 0 01-.029.045l-.414.914c-.136.295-.448.628-.703.921-.259.32-.605.503-.914.753-.322.227-.716.358-1.077.522-.768.219-1.57.258-2.245.078a3.834 3.834 0 01-.941-.321 5.463 5.463 0 01-.783-.427 6.068 6.068 0 01-1.143-.969 5.545 5.545 0 01-.693-.887zM79 57.196v18.833H0V57.196h5.381V36.04L20.546 25.4v10.64L35.708 25.4v10.64L50.873 25.4v20.913h5.232L58.947 9.32h8.673l2.487 36.993h5.835v10.884H79v-.001zm-54.236-8.133H12.842V60.07h11.922V49.063zm20.544 0H33.386V60.07h11.922V49.063zm20.802 0H54.188V60.07H66.11V49.063z" fill="#A3242D"/></svg>