<svg width="73" height="73" fill="none" xmlns="http://www.w3.org/2000/svg"><g clip-path="url(#clip0)" fill="#A3242D"><path d="M39.061 15.368l3.369 8.44.013.013 1.741 4.354h20.491l5.123-12.807H39.061zm7.685 26.895h15.368a1.28 1.28 0 001.28-1.28V37.14h2.562a1.28 1.28 0 001.28-1.28v-3.843a1.28 1.28 0 00-1.28-1.28H42.904a1.28 1.28 0 00-1.281 1.28v3.843c0 .707.573 1.28 1.28 1.28h2.562v3.842a1.28 1.28 0 001.28 1.281zM53.15 55.39v2.242a1.28 1.28 0 002.56 0V55.39l3.843-2.881v-7.684H49.307v7.684l3.842 2.881zM71.079 0H37.78a1.28 1.28 0 00-1.28 1.28v10.246c.003.465.258.892.666 1.114.397.257-1.55.167 33.913.167a1.28 1.28 0 001.28-1.28V1.28A1.28 1.28 0 0071.08 0zm-3.842 6.404h-17.93a1.28 1.28 0 010-2.562h17.93a1.28 1.28 0 010 2.562zM36.743 20.005l-.935-5.123a3.727 3.727 0 01-1.639-2.075h-7.057a1.28 1.28 0 00-1.28 1.05l-1.114 6.148a23.052 23.052 0 0112.025 0z"/><path d="M9.605 42.904a21.119 21.119 0 0038.549 11.948l-1.41-1.063v-8.965a3.842 3.842 0 01-3.841-3.842v-1.28a3.842 3.842 0 01-3.842-3.842v-3.843a3.842 3.842 0 012.471-3.573l-1.882-4.7a21.157 21.157 0 00-30.045 19.16zm16.649-17.29a1.28 1.28 0 110 2.561 1.28 1.28 0 010-2.561zm4.482 11.526a5.763 5.763 0 11-5.763 5.764 5.776 5.776 0 015.763-5.764zm-8.9-8.824a1.28 1.28 0 111.152 2.28c-4.508 2.254-6.98 6.852-6.98 12.948a1.28 1.28 0 01-2.561 0c0-7.12 2.984-12.525 8.388-15.228zM27.113 73h7.248a1.28 1.28 0 001.28-1.05l1.115-6.148a23.052 23.052 0 01-12.013 0l1.114 6.148A1.28 1.28 0 0027.113 73z"/><path d="M10.297 54.84l-3.56 5.122a1.28 1.28 0 00.153 1.627l5.123 5.123a1.28 1.28 0 001.627.14l5.122-3.56a23.937 23.937 0 01-8.465-8.452zm33.054 8.081l5.75 3.983a1.28 1.28 0 001.627-.154c5.507-5.584 5.379-5.263 5.456-5.699a3.842 3.842 0 01-5.597-3.42v-.96l-.41-.32a23.63 23.63 0 01-6.826 6.57zM12.026 19.057L6.903 24.18a1.28 1.28 0 00-.14 1.626l3.56 5.123a23.937 23.937 0 018.503-8.504l-5.122-3.56a1.28 1.28 0 00-1.678.192zM.64 39.28v7.248a1.28 1.28 0 001.05 1.28l6.148 1.115a23.053 23.053 0 010-12.013L1.69 38.024a1.28 1.28 0 00-1.05 1.255z"/></g><defs><clipPath id="clip0"><path fill="#fff" d="M0 0h73v73H0z"/></clipPath></defs></svg>