<?xml version="1.0" encoding="utf-8"?><svg viewBox="0 0 496 512" xmlns="http://www.w3.org/2000/svg" xmlns:xlink="http://www.w3.org/1999/xlink"><style>:root>svg{display:none}:root>svg:target{display:block}</style><svg viewBox="0 0 12 12" id="clock" xmlns="http://www.w3.org/2000/svg"><path d="M6 0C2.691 0 0 2.691 0 6s2.691 6 6 6 6-2.691 6-6-2.691-6-6-6zm2.854 9.103a.499.499 0 01-.707 0l-2.5-2.5A.498.498 0 015.5 6.25V3a.5.5 0 111 0v3.043l2.354 2.353a.5.5 0 010 .707z"/></svg><svg viewBox="0 0 18 18" id="close" xmlns="http://www.w3.org/2000/svg"><defs><path id="ba" d="M691.485 160.07l-1.414 1.415-7.071-7.071-7.071 7.071-1.414-1.414 7.07-7.071-7.07-7.071 1.414-1.415 7.07 7.071 7.072-7.07 1.414 1.414-7.07 7.07z"/></defs><use xlink:href="#ba" transform="translate(-674 -144)"/></svg><svg viewBox="0 0 33 33" id="close-circle" xmlns="http://www.w3.org/2000/svg"><circle cx="16.5" cy="16.5" r="16" stroke="#fff"/><path d="M8.256 24.16L24.163 8.251M23.906 24.413L8.256 8.252" stroke="#fff"/></svg><svg viewBox="0 0 26 22" id="email" xmlns="http://www.w3.org/2000/svg"><path d="M23.715 2.621H2.285c-.352 0-.68.073-.979.194l11.643 9.852 2.61-2.122 9.135-7.73a2.601 2.601 0 00-.98-.194zM25.771 3.727L17.175 11l8.596 7.274c.143-.252.229-.531.229-.829V4.555c0-.298-.086-.576-.229-.828zM.229 3.726C.086 3.978 0 4.257 0 4.555v12.89c0 .298.086.576.229.828L8.825 11 .23 3.726z"/><path d="M16.098 11.912l-2.61 2.122a.835.835 0 01-.539.189.835.835 0 01-.538-.19l-2.509-2.122-8.596 7.274c.298.12.627.194.98.194h21.429c.352 0 .68-.073.979-.194l-8.596-7.273z"/></svg><svg fill="none" viewBox="0 0 79 77" id="factory" xmlns="http://www.w3.org/2000/svg"><path d="M45.86 5.319c-.34-.524-.449-.877-.449-.877l.162-.15s.314.131.864.357l.94.373c.359.13.749.281 1.167.383.206.064.416.127.632.152.11.014.213.044.322.064.107.007.214.01.32.024.433.058.83.011 1.265-.011.202-.075.427-.095.646-.19.202-.119.465-.188.651-.34.1-.068.202-.139.312-.209.115-.064.236-.115.358-.247l.77-.645c.007-.01-.046.066-.02.03l.005-.005.013-.012.025-.022.05-.045.102-.09.202-.177.38-.361c.24-.247.541-.44.783-.677.237-.246.557-.397.811-.635.272-.215.59-.375.896-.583.644-.303 1.397-.528 2.071-.433.169.018.333.044.495.074.156.043.302.097.448.152.297.098.553.238.795.377a5.477 5.477 0 011.87 1.797c.173.26.272.49.343.647l.089.249-.162.15s-.346-.117-.878-.34c-.26-.103-.573-.232-.934-.377-.349-.144-.732-.302-1.136-.439-.202-.074-.41-.151-.62-.202-.108-.026-.213-.068-.32-.099a2.823 2.823 0 01-.322-.084c-.434-.142-.883-.281-1.439-.34-.255.034-.56.023-.826.134-.255.13-.549.23-.754.46-.206.222-.442.416-.587.7l-.21.421-.098.212-.047.106-.023.054-.012.025-.005.012-.004.008c.021-.03-.032.05-.029.045l-.414.914c-.136.295-.448.628-.703.921-.259.32-.605.503-.914.753-.322.227-.716.358-1.077.522-.768.219-1.57.258-2.245.078a3.834 3.834 0 01-.941-.321 5.463 5.463 0 01-.783-.427 6.068 6.068 0 01-1.143-.969 5.545 5.545 0 01-.693-.887zM79 57.196v18.833H0V57.196h5.381V36.04L20.546 25.4v10.64L35.708 25.4v10.64L50.873 25.4v20.913h5.232L58.947 9.32h8.673l2.487 36.993h5.835v10.884H79v-.001zm-54.236-8.133H12.842V60.07h11.922V49.063zm20.544 0H33.386V60.07h11.922V49.063zm20.802 0H54.188V60.07H66.11V49.063z" fill="#A3242D"/></svg><svg viewBox="0 0 12 12" id="location" xmlns="http://www.w3.org/2000/svg"><g clip-path="url(#fclip0)"><path d="M6 0C2.788 0 1.806 2.5 1.806 4.595 1.806 7.628 5.196 12 6 12c.853 0 4.194-4.405 4.194-7.405C10.194 2.5 9.21 0 6 0zm0 6.009a1.877 1.877 0 110-3.754A1.877 1.877 0 016 6.01z"/></g><defs><clipPath id="fclip0"><path d="M0 0h12v12H0z"/></clipPath></defs></svg><svg fill="none" viewBox="0 0 74 74" id="medal" xmlns="http://www.w3.org/2000/svg"><path d="M46.159 0l-9.16 12.214L27.842 0H10.227L37 35.698 63.773 0H46.159zM37 35.698c-10.58 0-19.152 8.573-19.152 19.152C17.848 65.426 26.42 74 37 74c10.576 0 19.152-8.574 19.152-19.15 0-10.58-8.575-19.152-19.152-19.152zm6.905 29.787l-6.904-3.633-6.905 3.633 1.316-7.698-5.59-5.447 7.723-1.125 3.456-6.998 3.456 6.998 7.725 1.125-5.59 5.447 1.313 7.698z" fill="#A3242D"/></svg><svg fill="none" viewBox="0 0 73 73" id="milling-machine" xmlns="http://www.w3.org/2000/svg"><g clip-path="url(#hclip0)" fill="#A3242D"><path d="M39.061 15.368l3.369 8.44.013.013 1.741 4.354h20.491l5.123-12.807H39.061zM46.746 42.263h15.368a1.28 1.28 0 001.28-1.28V37.14h2.562a1.28 1.28 0 001.28-1.28v-3.843a1.28 1.28 0 00-1.28-1.28H42.904a1.28 1.28 0 00-1.281 1.28v3.843c0 .707.573 1.28 1.28 1.28h2.562v3.842c0 .708.573 1.281 1.28 1.281zM53.15 55.39v2.242a1.28 1.28 0 002.56 0V55.39l3.843-2.881v-7.684H49.307v7.684l3.842 2.881zM71.079 0H37.78A1.28 1.28 0 0036.5 1.28v10.246c.003.465.258.892.666 1.114.397.257-1.55.167 33.913.167a1.28 1.28 0 001.28-1.28V1.28A1.28 1.28 0 0071.08 0zm-3.842 6.404h-17.93a1.28 1.28 0 010-2.562h17.93a1.28 1.28 0 010 2.562zM36.743 20.005l-.935-5.123a3.727 3.727 0 01-1.639-2.075h-7.057a1.28 1.28 0 00-1.28 1.05l-1.114 6.148a23.052 23.052 0 0112.025 0z"/><path d="M9.605 42.904a21.119 21.119 0 0038.549 11.948l-1.41-1.063v-8.965a3.842 3.842 0 01-3.841-3.842v-1.28a3.842 3.842 0 01-3.842-3.842v-3.843a3.842 3.842 0 012.471-3.573l-1.882-4.7a21.157 21.157 0 00-30.045 19.16zm16.649-17.29a1.28 1.28 0 110 2.561 1.28 1.28 0 010-2.561zm4.482 11.526a5.763 5.763 0 11-5.763 5.764 5.776 5.776 0 015.763-5.764zm-8.9-8.824a1.28 1.28 0 111.152 2.28c-4.508 2.254-6.98 6.852-6.98 12.948a1.28 1.28 0 01-2.561 0c0-7.12 2.984-12.525 8.388-15.228zM27.113 73h7.248a1.28 1.28 0 001.28-1.05l1.115-6.148a23.052 23.052 0 01-12.013 0l1.114 6.148A1.28 1.28 0 0027.113 73z"/><path d="M10.297 54.84l-3.56 5.122a1.28 1.28 0 00.153 1.627l5.123 5.123a1.28 1.28 0 001.627.14l5.122-3.56a23.937 23.937 0 01-8.465-8.452zM43.351 62.921l5.75 3.983a1.28 1.28 0 001.627-.154c5.507-5.584 5.379-5.263 5.456-5.699a3.842 3.842 0 01-5.597-3.42v-.96l-.41-.32a23.63 23.63 0 01-6.826 6.57zM12.026 19.057L6.903 24.18a1.28 1.28 0 00-.14 1.626l3.56 5.123a23.937 23.937 0 018.503-8.504l-5.122-3.56a1.28 1.28 0 00-1.678.192zM.64 39.28v7.248a1.28 1.28 0 001.05 1.28l6.148 1.115a23.053 23.053 0 010-12.013L1.69 38.024a1.28 1.28 0 00-1.05 1.255z"/></g><defs><clipPath id="hclip0"><path fill="#fff" d="M0 0h73v73H0z"/></clipPath></defs></svg><svg viewBox="0 0 14 14" id="next_arrow" xmlns="http://www.w3.org/2000/svg"><g clip-path="url(#iclip0)"><path d="M11.44 6.563L5.893.896l-.629.615 4.953 5.051-4.953 5.056.63.608 5.546-5.664z"/></g><defs><clipPath id="iclip0"><path transform="rotate(90 7 7)" d="M0 0h14v14H0z"/></clipPath></defs></svg><svg viewBox="0 0 25 25" id="phone" xmlns="http://www.w3.org/2000/svg"><g clip-path="url(#jclip0)"><path d="M19.007 16.538c-.817-.806-1.837-.806-2.648 0-.62.614-1.239 1.228-1.847 1.852-.167.172-.307.208-.51.094-.4-.219-.827-.396-1.212-.635-1.795-1.129-3.298-2.58-4.63-4.214-.66-.812-1.249-1.68-1.66-2.658-.083-.198-.067-.328.094-.49.62-.598 1.223-1.211 1.831-1.825.848-.853.848-1.852-.005-2.71-.484-.49-.968-.968-1.451-1.457-.5-.5-.994-1.004-1.499-1.499-.816-.795-1.836-.795-2.648.006C2.198 3.616 1.6 4.245.965 4.848.377 5.405.081 6.087.018 6.883-.08 8.178.237 9.4.684 10.592c.916 2.466 2.31 4.656 4 6.664 2.285 2.715 5.01 4.864 8.2 6.414 1.435.697 2.923 1.233 4.541 1.322 1.113.062 2.081-.219 2.856-1.088.53-.593 1.13-1.134 1.69-1.7.833-.844.838-1.863.011-2.696-.988-.993-1.982-1.982-2.975-2.97zM18.013 12.392l1.92-.328a8.58 8.58 0 00-2.399-4.63 8.534 8.534 0 00-4.89-2.44l-.27 1.93a6.62 6.62 0 013.787 1.889 6.62 6.62 0 011.852 3.579zM21.015 4.047A14.155 14.155 0 0012.899 0l-.27 1.93a12.273 12.273 0 017.012 3.496 12.264 12.264 0 013.439 6.633L25 11.73a14.258 14.258 0 00-3.985-7.684z"/></g><defs><clipPath id="jclip0"><path d="M0 0h25v25H0z"/></clipPath></defs></svg><svg viewBox="0 0 14 14" id="prev_arrow" xmlns="http://www.w3.org/2000/svg"><path d="M2.56 7.438l5.547 5.667.629-.616-4.953-5.052 4.953-5.055-.63-.608L2.56 7.437z"/></svg><svg viewBox="0 0 15 16" id="search" xmlns="http://www.w3.org/2000/svg"><path d="M14.772 14.152l-3.698-3.846a6.253 6.253 0 001.472-4.033A6.28 6.28 0 006.273 0 6.28 6.28 0 000 6.273a6.28 6.28 0 006.273 6.273 6.206 6.206 0 003.594-1.135l3.726 3.875c.155.162.365.25.59.25a.82.82 0 00.59-1.385zm-8.5-12.516a4.642 4.642 0 014.637 4.637 4.642 4.642 0 01-4.636 4.636 4.642 4.642 0 01-4.637-4.636 4.642 4.642 0 014.637-4.637z"/></svg><svg viewBox="0 0 496 512" id="smile" xmlns="http://www.w3.org/2000/svg"><path d="M248 8C111 8 0 119 0 256s111 248 248 248 248-111 248-248S385 8 248 8zm80 168c17.7 0 32 14.3 32 32s-14.3 32-32 32-32-14.3-32-32 14.3-32 32-32zm-160 0c17.7 0 32 14.3 32 32s-14.3 32-32 32-32-14.3-32-32 14.3-32 32-32zm194.8 170.2C334.3 380.4 292.5 400 248 400s-86.3-19.6-114.8-53.8c-13.6-16.3 11-36.7 24.6-20.5 22.4 26.9 55.2 42.2 90.2 42.2s67.8-15.4 90.2-42.2c13.4-16.2 38.1 4.2 24.6 20.5z"/></svg><svg viewBox="0 0 76 73" id="up" xmlns="http://www.w3.org/2000/svg"><path d="M38.41 37.164L0 73h75.654L38.41 37.164z"/><path d="M74.327 0H0v51.764l38.325-36.81 36.002 36.81V0z"/></svg><svg fill="none" viewBox="0 0 81 81" id="users" xmlns="http://www.w3.org/2000/svg"><g clip-path="url(#oclip0)"><path d="M48.355 17.922c3.705 2.323 6.303 6.254 6.776 10.817a11.69 11.69 0 004.966 1.112c6.491 0 11.752-5.261 11.752-11.751 0-6.491-5.261-11.752-11.752-11.752-6.429.002-11.644 5.169-11.742 11.574zm-7.699 24.062c6.491 0 11.752-5.262 11.752-11.752 0-6.49-5.262-11.751-11.752-11.751-6.49 0-11.754 5.262-11.754 11.752 0 6.49 5.264 11.751 11.754 11.751zm4.985.801h-9.972c-8.297 0-15.047 6.751-15.047 15.048v12.195l.031.191.84.263c7.918 2.474 14.797 3.299 20.459 3.299 11.059 0 17.469-3.153 17.864-3.354l.785-.397h.084V57.833c.003-8.297-6.747-15.048-15.044-15.048zm19.443-12.132h-9.895a14.483 14.483 0 01-4.47 10.088c7.375 2.193 12.771 9.032 12.771 17.11v3.758c9.77-.358 15.4-3.127 15.771-3.313l.785-.398h.084V45.699c0-8.296-6.75-15.046-15.046-15.046zm-45.049-.8c2.299 0 4.438-.671 6.25-1.814a14.544 14.544 0 015.467-9.276c.012-.22.033-.438.033-.66 0-6.491-5.262-11.752-11.75-11.752-6.492 0-11.752 5.261-11.752 11.752 0 6.488 5.26 11.75 11.752 11.75zm10.554 10.888a14.492 14.492 0 01-4.467-10.032c-.367-.027-.73-.056-1.104-.056h-9.971C6.75 30.653 0 37.403 0 45.699v12.197l.031.188.84.265c6.352 1.983 12.021 2.897 16.945 3.185v-3.683c.002-8.078 5.396-14.915 12.773-17.11z" fill="#A3242D"/></g><defs><clipPath id="oclip0"><path fill="#fff" d="M0 0h80.13v80.13H0z"/></clipPath></defs></svg></svg>